<svg xmlns="http://www.w3.org/2000/svg" width="760" height="280" font-family="Arial, Apple SD Gothic Neo, Malgun Gothic, sans-serif"><rect width="100%" height="100%" fill="#ffffff"/><text x="30" y="32" font-size="22" fill="#0f172a" font-weight="700">Availability Curve</text><line x1="64" y1="220" x2="720" y2="220" stroke="#94a3b8"/><line x1="64" y1="52" x2="64" y2="220" stroke="#94a3b8"/><line x1="64" y1="136.0" x2="720" y2="136.0" stroke="#ef4444" stroke-dasharray="6 5"/><polyline points="64.0,122.6 157.7,110.6 251.4,109.5 345.1,98.2 438.9,93.7 532.6,91.0 626.3,88.3 720.0,89.0" fill="none" stroke="#1d4ed8" stroke-width="3"/><circle cx="64.0" cy="122.6" r="4" fill="#1d4ed8"/><circle cx="157.7" cy="110.6" r="4" fill="#1d4ed8"/><circle cx="251.4" cy="109.5" r="4" fill="#1d4ed8"/><circle cx="345.1" cy="98.2" r="4" fill="#1d4ed8"/><circle cx="438.9" cy="93.7" r="4" fill="#1d4ed8"/><circle cx="532.6" cy="91.0" r="4" fill="#1d4ed8"/><circle cx="626.3" cy="88.3" r="4" fill="#1d4ed8"/><circle cx="720.0" cy="89.0" r="4" fill="#1d4ed8"/><text x="30" y="250" font-size="13" fill="#475569">Defense cost lowers availability; below 0.5 is RED_ATTRITION.</text></svg>